<svg xmlns="http://www.w3.org/2000/svg" xmlns:xlink="http://www.w3.org/1999/xlink" version="1.1" id="Layer_1" x="0px" y="0px" width="67.222" height="64" viewBox="-263 388.9 67.2 64" enable-background="new -263 388.9 67.2 64" xml:space="preserve">
<g id="Group_7371" transform="translate(-721 -226)">
	<path id="Path_7705" fill="#E95454" d="M510,614.9c8.3,0,15,6.7,15,15c0,8.3-6.7,15-15,15c-8.3,0-15-6.7-15-15   C495,621.6,501.7,614.9,510,614.9z"/>
	<g id="bill" transform="translate(731 225.61)">
		<path id="Path_7699" fill="#74A1B9" d="M-221.2,389.3c-6.5,0-12.3,4.1-14.6,10.2h-27c-0.6,0-1.1,0.5-1.1,1.1l-0.3,38.2h-7.7    c-0.6,0-1.1,0.4-1.1,1c0,0,0,0,0,0v4.8c0,4.6,3.6,8.3,8.2,8.5v0h33.6v0c0.3,0,0.4,0,0.6,0h0c4.7,0,8.5-3.8,8.5-8.6v-24.5    c0.3,0,0.6,0,0.8,0c8.5,0,15.5-6.9,15.5-15.5C-205.8,396.2-212.7,389.3-221.2,389.3z M-264.4,451.1L-264.4,451.1    c-3.5,0-6.4-2.9-6.4-6.4V441h31.6v3.7c0,2.3,0.9,4.5,2.5,6.1c0.1,0.1,0.3,0.2,0.4,0.3L-264.4,451.1z M-224.3,444.7    c0,3.5-2.8,6.4-6.4,6.4h0c-3.5,0-6.4-2.9-6.4-6.4v-4.8c0-0.6-0.4-1-1-1c0,0,0,0-0.1,0H-262l0.3-37.2h25.4c-0.2,1-0.3,2-0.3,3    c0,2.1,0.4,4.3,1.3,6.2h-10.3c-0.6,0-1.1,0.5-1.1,1.1s0.5,1.1,1.1,1.1c0,0,0,0,0,0h11.5c2.2,3.5,5.8,6,9.9,6.8V444.7z     M-221.2,418.1c-7.3,0-13.3-5.9-13.3-13.3c0-7.3,5.9-13.3,13.3-13.3c7.3,0,13.3,5.9,13.3,13.3l0,0    C-208,412.1-213.9,418.1-221.2,418.1C-221.2,418.1-221.2,418.1-221.2,418.1z"/>
		<path id="Path_7700" fill="#74A1B9" d="M-252.7,418.2c-1.9,0.1-3.3,1.6-3.3,3.5c0.1,1.9,1.6,3.3,3.5,3.3c1.8-0.1,3.3-1.6,3.3-3.4    C-249.2,419.7-250.8,418.2-252.7,418.2z M-252.7,422.8c-0.7-0.1-1.1-0.6-1.1-1.3c0.1-0.7,0.6-1.1,1.3-1.1c0.6,0.1,1.1,0.6,1.1,1.2    C-251.4,422.3-252,422.8-252.7,422.8L-252.7,422.8z"/>
		<path id="Path_7701" fill="#74A1B9" d="M-246.8,421.6c0,0.6,0.5,1.1,1.1,1.1c0,0,0,0,0,0h14.5c0.6,0,1.1-0.5,1.1-1.1    c0-0.6-0.5-1.1-1.1-1.1h-14.5C-246.3,420.5-246.8,421-246.8,421.6z"/>
		<path id="Path_7702" fill="#74A1B9" d="M-252.7,408.7c-1.9,0.1-3.3,1.6-3.3,3.5c0.1,1.9,1.6,3.3,3.5,3.3c1.8-0.1,3.3-1.6,3.3-3.4    C-249.2,410.2-250.8,408.7-252.7,408.7z M-252.7,413.3c-0.7-0.1-1.1-0.6-1.1-1.3c0.1-0.7,0.6-1.1,1.3-1.1c0.6,0.1,1.1,0.6,1.1,1.2    C-251.4,412.8-252,413.3-252.7,413.3z"/>
		<path id="Path_7703" fill="#74A1B9" d="M-252.7,427.7c-1.9,0.1-3.3,1.6-3.3,3.5c0.1,1.9,1.6,3.3,3.5,3.3c1.8-0.1,3.3-1.6,3.3-3.4    C-249.2,429.1-250.8,427.6-252.7,427.7z M-252.7,432.2c-0.7-0.1-1.1-0.6-1.1-1.3c0.1-0.7,0.6-1.1,1.3-1.1c0.6,0.1,1.1,0.6,1.1,1.2    C-251.4,431.7-252,432.3-252.7,432.2z"/>
		<path id="Path_7704" fill="#74A1B9" d="M-231.2,430h-14.5c-0.6,0-1.1,0.5-1.1,1.1c0,0.6,0.5,1.1,1.1,1.1h14.5    c0.6,0,1.1-0.5,1.1-1.1C-230.1,430.5-230.6,430-231.2,430z"/>
	</g>
</g>
<g>
	
		<rect x="-212.6" y="395.6" transform="matrix(-0.7071 0.7071 -0.7071 -0.7071 -74.605 838.6832)" fill="#FFFFFF" width="3.3" height="16.6"/>
	
		<rect x="-219.3" y="402.3" transform="matrix(-0.7071 0.7071 -0.7071 -0.7071 -74.6074 838.6826)" fill="#FFFFFF" width="16.6" height="3.3"/>
</g>
</svg>