<svg xmlns="http://www.w3.org/2000/svg" width="76.694" height="60" viewBox="0 0 76.694 60">
  <g id="binoculars" transform="translate(0 0)">
    <g id="Group_6455" data-name="Group 6455" transform="translate(0)">
      <g id="Group_6454" data-name="Group 6454">
        <path id="Path_6852" data-name="Path 6852" d="M76.277,89.739a1.679,1.679,0,0,0-.1-.436h0l-.042-.115a16.1,16.1,0,0,0-1.029-2.779L66.616,63.472a11.393,11.393,0,0,0-4.2-5.718l-.3-2.146a1.687,1.687,0,0,0-.07-.3,8.292,8.292,0,0,0-7.9-5.65,8.394,8.394,0,0,0-8.309,8.19v.074l.072,3.321a11.282,11.282,0,0,0-1.462,4.294H32.254a11.291,11.291,0,0,0-1.46-4.289l.071-3.263v-.065a8.39,8.39,0,0,0-8.309-8.185,8.294,8.294,0,0,0-7.9,5.653,1.689,1.689,0,0,0-.068.289l-.3,2.075a11.4,11.4,0,0,0-4.2,5.717L1.591,86.41A16.107,16.107,0,0,0,.562,89.189L.52,89.3a1.68,1.68,0,0,0-.1.437A16.249,16.249,0,1,0,32.5,93.406c0-.176,0-.353-.009-.527a1.843,1.843,0,0,0,.009-.195l-.036-5.631h11.77L44.2,93.02c0,.028,0,.061,0,.089,0,.1,0,.2,0,.295a16.248,16.248,0,1,0,32.079-3.664ZM22.555,53.1a5.011,5.011,0,0,1,4.932,4.6,11.446,11.446,0,0,0-9.463-1.7A4.945,4.945,0,0,1,22.555,53.1ZM13.247,64.61c.008-.021.015-.041.022-.062a8.066,8.066,0,0,1,14.374-1.961,1.681,1.681,0,0,0,.1.161,7.89,7.89,0,0,1,1.229,4.236l.1,16.462A16.224,16.224,0,0,0,7.7,79.6ZM27.828,99.074a12.885,12.885,0,0,1-11.574,7.219h0A12.89,12.89,0,0,1,3.77,90.207l.913-2.465A12.885,12.885,0,1,1,27.828,99.074ZM44.255,83.691H32.444l-.017-2.521H44.272Zm.039-5.883H32.407L32.351,68.9h12Zm9.851-24.786a4.94,4.94,0,0,1,4.568,2.995,11.446,11.446,0,0,0-9.505,1.693A5.009,5.009,0,0,1,54.145,53.022Zm-6.421,13.95A8.059,8.059,0,0,1,59.853,60.1a1.7,1.7,0,0,0,.262.16,8.036,8.036,0,0,1,3.317,4.288c.007.021.014.042.022.063h0L69,79.6A16.223,16.223,0,0,0,47.62,83.443ZM63.637,105.89a12.89,12.89,0,0,1-3.191.4h0a12.886,12.886,0,1,1,11.571-18.55l.913,2.465A12.89,12.89,0,0,1,63.637,105.89Z" transform="translate(0 -49.661)" fill="#487184"/>
      </g>
    </g>
    <g id="Group_6457" data-name="Group 6457" transform="translate(4.74 32.232)">
      <g id="Group_6456" data-name="Group 6456">
        <path id="Path_6853" data-name="Path 6853" d="M39.714,241.429a11.513,11.513,0,1,0,11.513,11.513A11.513,11.513,0,0,0,39.714,241.429Zm0,19.665a8.152,8.152,0,1,1,8.152-8.152A8.152,8.152,0,0,1,39.714,261.094Z" transform="translate(-28.201 -241.429)" fill="#487184"/>
      </g>
    </g>
    <g id="Group_6459" data-name="Group 6459" transform="translate(48.728 32.232)">
      <g id="Group_6458" data-name="Group 6458">
        <path id="Path_6854" data-name="Path 6854" d="M301.424,241.429a11.513,11.513,0,1,0,11.513,11.513A11.513,11.513,0,0,0,301.424,241.429Zm0,19.665a8.152,8.152,0,1,1,8.152-8.152A8.152,8.152,0,0,1,301.424,261.094Z" transform="translate(-289.911 -241.429)" fill="#487184"/>
      </g>
    </g>
  </g>
</svg>