<svg xmlns="http://www.w3.org/2000/svg" width="67.222" height="64" viewBox="0 0 67.222 64">
  <g id="Group_7370" data-name="Group 7370" transform="translate(-406 -226)">
    <circle id="Ellipse_79" data-name="Ellipse 79" cx="15" cy="15" r="15" transform="translate(443 226)" fill="#0ba248"/>
    <g id="bill" transform="translate(406 225.61)">
      <path id="Path_7698" data-name="Path 7698" d="M350.3,43.72c.029,0,.059,0,.088,0a1.09,1.09,0,0,0,.15-.011,2.434,2.434,0,0,1,2.385,2.43,1.089,1.089,0,0,0,2.178,0,4.618,4.618,0,0,0-3.624-4.5V40.593a1.089,1.089,0,1,0-2.178,0v1.1a4.611,4.611,0,0,0,1.191,9.065,2.433,2.433,0,1,1-2.433,2.433,1.089,1.089,0,1,0-2.178,0,4.619,4.619,0,0,0,3.42,4.454v1.193a1.089,1.089,0,1,0,2.178,0V57.692a4.611,4.611,0,0,0-.987-9.115,2.432,2.432,0,0,1-.19-4.857Zm0,0" transform="translate(-298.791 -33.789)" fill="#fff"/>
      <path id="Path_7699" data-name="Path 7699" d="M51.76.39A15.626,15.626,0,0,0,37.2,10.616H10.169A1.139,1.139,0,0,0,9.08,11.754L8.823,49.96H1.118A1.071,1.071,0,0,0,0,51v4.848a8.555,8.555,0,0,0,8.168,8.52v.024H41.794v-.032c.272.01.384.032.557.032h.023a8.555,8.555,0,0,0,8.541-8.554V31.323c.272.015.561.023.842.023A15.478,15.478,0,0,0,51.76.39ZM8.582,62.212H8.575a6.406,6.406,0,0,1-6.4-6.377v-3.7H33.762v3.682a8.544,8.544,0,0,0,2.522,6.054c.114.114.256.2.376.339Zm40.155-6.377a6.376,6.376,0,0,1-6.364,6.377h-.021a6.424,6.424,0,0,1-6.412-6.392V51A1.005,1.005,0,0,0,34.9,49.96H11l.25-37.165H36.6a16.364,16.364,0,0,0-.3,3.025,15.358,15.358,0,0,0,1.315,6.233H27.325a1.089,1.089,0,1,0,0,2.178H38.794a15.369,15.369,0,0,0,9.943,6.821ZM51.76,29.168A13.285,13.285,0,1,1,65.045,15.883,13.284,13.284,0,0,1,51.76,29.168Zm0,0" transform="translate(0 0)" fill="#74a1b9"/>
      <path id="Path_7700" data-name="Path 7700" d="M127.247,212.746a3.377,3.377,0,1,0,3.486,3.375A3.436,3.436,0,0,0,127.247,212.746Zm0,4.572a1.2,1.2,0,1,1,1.308-1.2A1.257,1.257,0,0,1,127.247,217.318Zm0,0" transform="translate(-106.913 -183.446)" fill="#74a1b9"/>
      <path id="Path_7701" data-name="Path 7701" d="M192.719,230.593a1.089,1.089,0,0,0,1.089,1.089h14.52a1.089,1.089,0,0,0,0-2.178h-14.52A1.089,1.089,0,0,0,192.719,230.593Zm0,0" transform="translate(-166.483 -197.923)" fill="#74a1b9"/>
      <path id="Path_7702" data-name="Path 7702" d="M127.247,143.2a3.377,3.377,0,1,0,3.486,3.376A3.436,3.436,0,0,0,127.247,143.2Zm0,4.573a1.2,1.2,0,1,1,1.308-1.2,1.257,1.257,0,0,1-1.308,1.2Zm0,0" transform="translate(-106.913 -123.371)" fill="#74a1b9"/>
      <path id="Path_7703" data-name="Path 7703" d="M127.247,282.281a3.377,3.377,0,1,0,3.486,3.375A3.436,3.436,0,0,0,127.247,282.281Zm0,4.572a1.2,1.2,0,1,1,1.308-1.2A1.257,1.257,0,0,1,127.247,286.853Zm0,0" transform="translate(-106.913 -243.515)" fill="#74a1b9"/>
      <path id="Path_7704" data-name="Path 7704" d="M208.328,299.5h-14.52a1.089,1.089,0,0,0,0,2.178h14.52a1.089,1.089,0,0,0,0-2.178Zm0,0" transform="translate(-166.483 -258.393)" fill="#74a1b9"/>
    </g>
  </g>
</svg>