<svg xmlns="http://www.w3.org/2000/svg" xmlns:xlink="http://www.w3.org/1999/xlink" version="1.1" id="Layer_1" x="0px" y="0px" width="67.222" height="64" viewBox="-263 388.9 67.2 64" enable-background="new -263 388.9 67.2 64" xml:space="preserve">
<g id="Group_7370" transform="translate(-406 -226)">
	<circle id="Ellipse_79" fill="#F2C819" cx="195" cy="629.9" r="15"/>
	<g id="bill" transform="translate(406 225.61)">
		<path id="Path_7699" fill="#74A1B9" d="M-211.2,389.3c-6.5,0-12.3,4.1-14.6,10.2h-27c-0.6,0-1.1,0.5-1.1,1.1l-0.3,38.2h-7.7    c-0.6,0-1.1,0.4-1.1,1c0,0,0,0,0,0v4.8c0,4.6,3.6,8.3,8.2,8.5v0h33.6v0c0.3,0,0.4,0,0.6,0h0c4.7,0,8.5-3.8,8.5-8.6v-24.5    c0.3,0,0.6,0,0.8,0c8.5,0,15.5-6.9,15.5-15.5C-195.8,396.2-202.7,389.3-211.2,389.3z M-254.4,451.1L-254.4,451.1    c-3.5,0-6.4-2.9-6.4-6.4V441h31.6v3.7c0,2.3,0.9,4.5,2.5,6.1c0.1,0.1,0.3,0.2,0.4,0.3L-254.4,451.1z M-214.3,444.7    c0,3.5-2.8,6.4-6.4,6.4h0c-3.5,0-6.4-2.9-6.4-6.4v-4.8c0-0.6-0.4-1-1-1c0,0,0,0-0.1,0H-252l0.3-37.2h25.4c-0.2,1-0.3,2-0.3,3    c0,2.1,0.4,4.3,1.3,6.2h-10.3c-0.6,0-1.1,0.5-1.1,1.1s0.5,1.1,1.1,1.1c0,0,0,0,0,0h11.5c2.2,3.5,5.8,6,9.9,6.8V444.7z     M-211.2,418.1c-7.3,0-13.3-5.9-13.3-13.3c0-7.3,5.9-13.3,13.3-13.3c7.3,0,13.3,5.9,13.3,13.3l0,0    C-198,412.1-203.9,418.1-211.2,418.1C-211.2,418.1-211.2,418.1-211.2,418.1z"/>
		<path id="Path_7700" fill="#74A1B9" d="M-242.7,418.2c-1.9,0.1-3.3,1.6-3.3,3.5c0.1,1.9,1.6,3.3,3.5,3.3c1.8-0.1,3.3-1.6,3.3-3.4    C-239.2,419.7-240.8,418.2-242.7,418.2z M-242.7,422.8c-0.7-0.1-1.1-0.6-1.1-1.3c0.1-0.7,0.6-1.1,1.3-1.1c0.6,0.1,1.1,0.6,1.1,1.2    C-241.4,422.3-242,422.8-242.7,422.8L-242.7,422.8z"/>
		<path id="Path_7701" fill="#74A1B9" d="M-236.8,421.6c0,0.6,0.5,1.1,1.1,1.1c0,0,0,0,0,0h14.5c0.6,0,1.1-0.5,1.1-1.1    c0-0.6-0.5-1.1-1.1-1.1h-14.5C-236.3,420.5-236.8,421-236.8,421.6z"/>
		<path id="Path_7702" fill="#74A1B9" d="M-242.7,408.7c-1.9,0.1-3.3,1.6-3.3,3.5c0.1,1.9,1.6,3.3,3.5,3.3c1.8-0.1,3.3-1.6,3.3-3.4    C-239.2,410.2-240.8,408.7-242.7,408.7z M-242.7,413.3c-0.7-0.1-1.1-0.6-1.1-1.3c0.1-0.7,0.6-1.1,1.3-1.1c0.6,0.1,1.1,0.6,1.1,1.2    C-241.4,412.8-242,413.3-242.7,413.3z"/>
		<path id="Path_7703" fill="#74A1B9" d="M-242.7,427.7c-1.9,0.1-3.3,1.6-3.3,3.5c0.1,1.9,1.6,3.3,3.5,3.3c1.8-0.1,3.3-1.6,3.3-3.4    C-239.2,429.1-240.8,427.6-242.7,427.7z M-242.7,432.2c-0.7-0.1-1.1-0.6-1.1-1.3c0.1-0.7,0.6-1.1,1.3-1.1c0.6,0.1,1.1,0.6,1.1,1.2    C-241.4,431.7-242,432.3-242.7,432.2z"/>
		<path id="Path_7704" fill="#74A1B9" d="M-221.2,430h-14.5c-0.6,0-1.1,0.5-1.1,1.1c0,0.6,0.5,1.1,1.1,1.1h14.5    c0.6,0,1.1-0.5,1.1-1.1C-220.1,430.5-220.6,430-221.2,430z"/>
	</g>
</g>
<g>
	<path fill="#FFFFFF" d="M-203.7,397.7c-1.6-1.6-3.6-2.6-5.7-2.9l0.6-0.6c0.2-0.2,0.2-0.6,0-0.9c-0.2-0.2-0.6-0.2-0.9,0l-1.6,1.6   c-0.2,0.2-0.2,0.6,0,0.9l1.6,1.6c0.1,0.1,0.3,0.2,0.4,0.2c0.2,0,0.3-0.1,0.4-0.2c0.2-0.2,0.2-0.6,0-0.9l-0.4-0.4   c1.7,0.3,3.3,1.2,4.6,2.5c1.6,1.6,2.4,3.8,2.4,6.1c0,4.8-3.9,8.7-8.7,8.7c-4.8,0-8.7-3.9-8.7-8.7c0-1.8,0.6-3.6,1.6-5.1   c1-1.5,2.5-2.5,4.2-3.1c0.3-0.1,0.5-0.5,0.4-0.8c-0.1-0.3-0.5-0.5-0.8-0.4c-1.9,0.7-3.6,1.9-4.8,3.6c-1.2,1.7-1.9,3.7-1.9,5.8   c0,2.7,1,5.2,2.9,7.1c1.9,1.9,4.4,2.9,7.1,2.9c2.7,0,5.2-1,7.1-2.9c1.9-1.9,2.9-4.4,2.9-7.1C-200.9,402.1-201.9,399.6-203.7,397.7   L-203.7,397.7z"/>
	<path fill="#FFFFFF" d="M-217.3,404.7c0,3.6,2.9,6.5,6.5,6.5c3.6,0,6.5-2.9,6.5-6.5c0-3.6-2.9-6.5-6.5-6.5   C-214.4,398.2-217.3,401.1-217.3,404.7L-217.3,404.7z M-210.5,405.2c-0.9-0.3-1.4-0.6-1.8-0.9c-0.5-0.4-0.7-1-0.6-1.7   c0.1-0.7,0.6-1.3,1.3-1.5c0,0,0,0,0,0V401c0-0.3,0.3-0.6,0.6-0.6c0.3,0,0.6,0.3,0.6,0.6v0.2c0.4,0.1,0.7,0.3,0.9,0.4   c0.3,0.2,0.3,0.6,0.1,0.9c-0.2,0.3-0.6,0.3-0.9,0.1c-0.1-0.1-0.5-0.3-1-0.2c-0.3,0.1-0.4,0.4-0.4,0.5c0,0.2,0,0.4,0.1,0.4   c0.3,0.3,0.9,0.5,1.5,0.7c1,0.3,1.5,1.3,1.4,2.3c-0.1,0.5-0.3,1-0.7,1.3c-0.3,0.2-0.5,0.4-0.9,0.5v0.3c0,0.3-0.3,0.6-0.6,0.6   c-0.3,0-0.6-0.3-0.6-0.6v-0.2c-0.4,0-0.8-0.2-1.2-0.5c-0.3-0.2-0.4-0.6-0.2-0.9c0.2-0.3,0.6-0.4,0.9-0.2c0.4,0.3,0.6,0.3,1.2,0.3   c0.6,0,0.9-0.4,1-0.8C-209.9,405.9-209.9,405.4-210.5,405.2L-210.5,405.2z"/>
</g>
</svg>